<svg xmlns="http://www.w3.org/2000/svg" xmlns:xlink="http://www.w3.org/1999/xlink" width="24" height="24" viewBox="0 0 24 24">
  <defs>
    <clipPath id="clip-path">
      <rect id="Rectangle_204" data-name="Rectangle 204" width="24" height="24" transform="translate(1623 487)" fill="#fff"/>
    </clipPath>
  </defs>
  <g id="Mask_Group_13" data-name="Mask Group 13" transform="translate(-1623 -487)" clip-path="url(#clip-path)">
    <path id="_001-email" data-name="001-email" d="M20.484,0H3.516A3.52,3.52,0,0,0,0,3.516V16.494A3.52,3.52,0,0,0,3.516,20.01H20.484A3.52,3.52,0,0,0,24,16.494V3.516A3.52,3.52,0,0,0,20.484,0Zm0,18.6H3.516a2.112,2.112,0,0,1-2.109-2.109V3.673l10.216,6.506a.7.7,0,0,0,.755,0L22.594,3.673V16.494A2.112,2.112,0,0,1,20.484,18.6ZM22.207,2.3a.7.7,0,0,0-.22.092L12,8.753,2.013,2.393a.7.7,0,0,0-.22-.092,2.108,2.108,0,0,1,1.723-.895H20.484A2.108,2.108,0,0,1,22.207,2.3Zm0,0" transform="translate(1623 488.995)" fill="#676772" opacity="0.5"/>
  </g>
</svg>
