<svg xmlns="http://www.w3.org/2000/svg" xmlns:xlink="http://www.w3.org/1999/xlink" width="24" height="24" viewBox="0 0 24 24">
  <defs>
    <clipPath id="clip-path">
      <rect id="Rectangle_204" data-name="Rectangle 204" width="24" height="24" transform="translate(1623 487)" fill="#fff"/>
    </clipPath>
  </defs>
  <g id="Mask_Group_14" data-name="Mask Group 14" transform="translate(-1623 -487)" clip-path="url(#clip-path)">
    <g id="_002-key" data-name="002-key" transform="translate(1629.357 487)">
      <path id="Path_509" data-name="Path 509" d="M9.618,1.655A5.617,5.617,0,0,0,1.15,9a5.678,5.678,0,0,0,2.357,1.822v9.967A3.218,3.218,0,0,0,6.722,24a.7.7,0,0,0,.623-.378l1.619-3.1a.7.7,0,0,0-.029-.7L7.909,18.2l1.025-1.617a.7.7,0,0,0,0-.753L7.909,14.216,8.934,12.6a.7.7,0,0,0,0-.758l-.772-1.2a5.679,5.679,0,0,0,2.007-1.689,5.609,5.609,0,0,0-.549-7.3ZM6.9,9.643A.7.7,0,0,0,6.519,10.7l.987,1.531L6.483,13.84a.7.7,0,0,0,0,.753L7.508,16.21,6.483,17.827a.7.7,0,0,0,0,.753L7.53,20.231,6.319,22.549a1.812,1.812,0,0,1-1.406-1.763V10.324a.7.7,0,0,0-.5-.673A4.214,4.214,0,0,1,5.643,1.406H5.7A4.214,4.214,0,0,1,6.9,9.643Zm0,0" fill="#ababb5"/>
      <path id="Path_510" data-name="Path 510" d="M5.643,2.708A1.808,1.808,0,1,0,7.451,4.515,1.81,1.81,0,0,0,5.643,2.708Zm0,2.209a.4.4,0,1,1,.4-.4A.4.4,0,0,1,5.643,4.917Zm0,0" fill="#ababb5"/>
    </g>
  </g>
</svg>
