<?xml version="1.0" standalone="no"?>
<!DOCTYPE svg PUBLIC "-//W3C//DTD SVG 1.0//EN" "http://www.w3.org/TR/2001/REC-SVG-20010904/DTD/svg10.dtd">
<svg xmlns="http://www.w3.org/2000/svg" xmlns:xlink="http://www.w3.org/1999/xlink" id="body_1" width="61" height="46">

<g transform="matrix(0.953125 0 0 0.953125 -0 2.9843748)">
    <path d="M5.8 0L58.1 0C 61.4 0 64 2.6 64 5.7L64 5.7L64 36.3C 64 39.5 61.4 42 58.2 42L58.2 42L5.8 42C 2.6 42 0 39.4 0 36.3L0 36.3L0 5.7C 0 2.6 2.6 0 5.8 0z" stroke="none" fill="#FFFFFF" fill-rule="nonzero" />
    <path d="M0 36.3C 0 39.4 2.6 42 5.8 42L5.8 42L58.2 42C 61.4 42 64 39.5 64 36.3L64 36.3L64 21L0 21L0 36.3z" stroke="none" fill="#DC143C" fill-rule="nonzero" />
</g>
</svg>