<svg width="1017" height="654" viewBox="0 0 1017 654" fill="none" xmlns="http://www.w3.org/2000/svg">
<rect width="1017" height="654" fill="#212B36"/>
<rect x="220" y="259" width="113" height="23" fill="#D9D9D9"/>
<g filter="url(#filter0_d_106_4)">
<path d="M591 257C591 245.954 599.954 237 611 237H901C912.046 237 921 245.954 921 257V387C921 398.046 912.046 407 901 407H611C599.954 407 591 398.046 591 387V257Z" fill="#454F5B"/>
</g>
<rect x="17" y="222" width="101" height="22" fill="#D9D9D9"/>
<rect x="130" width="887" height="78" fill="#454F5B"/>
<rect x="806" y="27" width="47" height="25" fill="#D9D9D9"/>
<g filter="url(#filter1_d_106_4)">
<rect x="178" y="105" width="769" height="78" rx="39" fill="#454F5B"/>
</g>
<rect x="153" y="33" width="13" height="12" fill="#D9D9D9"/>
<circle cx="187" cy="39" r="9" fill="#D9D9D9"/>
<circle cx="887" cy="39" r="12" fill="#D9D9D9"/>
<circle cx="947" cy="39" r="26" fill="#D9D9D9"/>
<circle cx="220" cy="144" r="24" fill="#D9D9D9"/>
<g filter="url(#filter2_d_106_4)">
<rect x="196" y="222" width="367" height="341" rx="20" fill="#454F5B"/>
</g>
<rect x="459" y="465" width="64" height="24" rx="5" fill="#D9D9D9"/>
<rect x="410" y="382" width="113" height="23" rx="10" fill="#D9D9D9"/>
<rect x="410" y="332" width="113" height="23" rx="10" fill="#D9D9D9"/>
<rect x="410" y="282" width="113" height="23" rx="10" fill="#D9D9D9"/>
<rect x="617" y="282" width="32" height="12" rx="6" fill="#D9D9D9"/>
<rect x="617" y="308" width="32" height="12" rx="6" fill="#D9D9D9"/>
<rect x="617" y="334" width="32" height="12" rx="6" fill="#D9D9D9"/>
<rect x="235" y="382" width="113" height="23" rx="10" fill="#D9D9D9"/>
<rect x="235" y="282" width="113" height="23" rx="10" fill="#D9D9D9"/>
<rect x="235" y="332" width="113" height="23" rx="10" fill="#D9D9D9"/>
<rect width="130" height="654" fill="#161C24"/>
<rect x="821" y="355" width="64" height="24" rx="5" fill="#D9D9D9"/>
<rect x="17" y="183" width="101" height="22" fill="#D9D9D9"/>
<rect x="17" y="222" width="101" height="22" fill="#D9D9D9"/>
<rect x="17" y="259" width="101" height="22" fill="#D9D9D9"/>
<rect x="17" y="144" width="101" height="22" fill="#D9D9D9"/>
<rect x="17" y="51" width="96" height="35" fill="#D9D9D9"/>
<defs>
<filter id="filter0_d_106_4" x="587" y="237" width="338" height="178" filterUnits="userSpaceOnUse" color-interpolation-filters="sRGB">
<feFlood flood-opacity="0" result="BackgroundImageFix"/>
<feColorMatrix in="SourceAlpha" type="matrix" values="0 0 0 0 0 0 0 0 0 0 0 0 0 0 0 0 0 0 127 0" result="hardAlpha"/>
<feOffset dy="4"/>
<feGaussianBlur stdDeviation="2"/>
<feComposite in2="hardAlpha" operator="out"/>
<feColorMatrix type="matrix" values="0 0 0 0 0 0 0 0 0 0 0 0 0 0 0 0 0 0 0.25 0"/>
<feBlend mode="normal" in2="BackgroundImageFix" result="effect1_dropShadow_106_4"/>
<feBlend mode="normal" in="SourceGraphic" in2="effect1_dropShadow_106_4" result="shape"/>
</filter>
<filter id="filter1_d_106_4" x="174" y="105" width="777" height="86" filterUnits="userSpaceOnUse" color-interpolation-filters="sRGB">
<feFlood flood-opacity="0" result="BackgroundImageFix"/>
<feColorMatrix in="SourceAlpha" type="matrix" values="0 0 0 0 0 0 0 0 0 0 0 0 0 0 0 0 0 0 127 0" result="hardAlpha"/>
<feOffset dy="4"/>
<feGaussianBlur stdDeviation="2"/>
<feComposite in2="hardAlpha" operator="out"/>
<feColorMatrix type="matrix" values="0 0 0 0 0 0 0 0 0 0 0 0 0 0 0 0 0 0 0.25 0"/>
<feBlend mode="normal" in2="BackgroundImageFix" result="effect1_dropShadow_106_4"/>
<feBlend mode="normal" in="SourceGraphic" in2="effect1_dropShadow_106_4" result="shape"/>
</filter>
<filter id="filter2_d_106_4" x="192" y="222" width="375" height="349" filterUnits="userSpaceOnUse" color-interpolation-filters="sRGB">
<feFlood flood-opacity="0" result="BackgroundImageFix"/>
<feColorMatrix in="SourceAlpha" type="matrix" values="0 0 0 0 0 0 0 0 0 0 0 0 0 0 0 0 0 0 127 0" result="hardAlpha"/>
<feOffset dy="4"/>
<feGaussianBlur stdDeviation="2"/>
<feComposite in2="hardAlpha" operator="out"/>
<feColorMatrix type="matrix" values="0 0 0 0 0 0 0 0 0 0 0 0 0 0 0 0 0 0 0.25 0"/>
<feBlend mode="normal" in2="BackgroundImageFix" result="effect1_dropShadow_106_4"/>
<feBlend mode="normal" in="SourceGraphic" in2="effect1_dropShadow_106_4" result="shape"/>
</filter>
</defs>
</svg>
